<?xml version="1.0" encoding="UTF-8"?><svg id="Layer_1" xmlns="http://www.w3.org/2000/svg" viewBox="0 0 3880.57 1510.37"><defs><style>.cls-1{fill:#866657;}</style></defs><polygon class="cls-1" points="696.83 1473.95 695.7 1473.95 666.59 1383.82 651.58 1383.82 622.47 1473.95 621.34 1473.95 593.93 1383.82 570.83 1383.82 610.08 1506.44 631.11 1506.44 657.95 1424.38 659.1 1424.38 685.94 1506.44 706.96 1506.44 746.24 1383.82 724.24 1383.82 696.83 1473.95"/><polygon class="cls-1" points="842.23 1451.8 889.39 1451.8 889.39 1433.02 842.23 1433.02 842.23 1402.6 920.73 1402.6 920.73 1383.82 821.23 1383.82 821.23 1506.44 925.23 1506.44 925.23 1487.67 842.23 1487.67 842.23 1451.8"/><path class="cls-1" d="M1053.59,1431.14c-18.59-1.31-36.79-1.89-36.79-15.21s12.96-17.65,27.6-17.65c22.54,0,37.73,8.06,44.51,14.27l12.75-14.66c-9.74-7.7-30.58-17.83-56.51-17.83-22.54,0-49.38,8.64-49.38,37.76s30.79,31.92,57.81,33.8c21.42,1.68,35.51,4.87,35.51,20.27,0,13.9-14.45,20.11-32.68,20.11-27.41,0-44.7-13.17-54.65-22.18l-12.75,14.66c13.69,12.39,34.72,25.71,67.03,25.71,29.27,0,54.1-11.44,54.1-41.11,0-34.2-34.56-36.45-56.56-37.94Z"/><polygon class="cls-1" points="1171.62 1402.6 1219.88 1402.6 1219.88 1506.44 1240.91 1506.44 1240.91 1402.6 1288.98 1402.6 1288.98 1383.82 1171.62 1383.82 1171.62 1402.6"/><path class="cls-1" d="M1495.57,1379.87c-32.28,0-55.01,19.9-55.01,45.25,0,18.59,15.95,39.25,50.14,39.25,22.15,0,40.19-9.19,52-17.46-1.68,28.54-24.04,44.7-48.62,44.7-13.54,0-26.47-3.93-35.85-11.08l-12.78,14.64c5.6,3.95,21.21,15.21,48.23,15.21,36.26,0,68.39-24.98,68.39-67.21s-32.52-63.29-66.51-63.29Zm-2.98,67.61c-22.36,0-31-12.2-31-21.97,0-13.9,13.9-26.86,33.62-26.86,21.42,0,40.95,11.26,46.19,32.86-11.26,6.96-29.48,15.97-48.81,15.97Z"/><path class="cls-1" d="M1701.3,1425.87c-22.34,0-40.38,9.19-52.21,17.46,1.7-28.54,24.22-44.7,48.83-44.7,13.51,0,26.47,3.95,35.87,11.08l12.78-14.64c-5.66-3.95-21.24-15.21-48.28-15.21-36.24,0-68.34,24.98-68.34,67.21s32.47,63.29,66.46,63.29,55.04-19.9,55.04-45.25c0-18.59-15.97-39.25-50.14-39.25Zm-4.5,65.72c-21.42,0-41.14-11.08-46.37-32.68,11.26-7.12,29.48-16.16,48.99-16.16,22.34,0,30.98,12.23,30.98,21.99,0,13.88-13.88,26.84-33.59,26.84Z"/><polygon class="cls-1" points="1813.5 1402.6 1861.76 1402.6 1861.76 1506.44 1882.78 1506.44 1882.78 1402.6 1930.86 1402.6 1930.86 1383.82 1813.5 1383.82 1813.5 1402.6"/><polygon class="cls-1" points="2092.26 1430.19 2025.59 1430.19 2025.59 1383.82 2004.57 1383.82 2004.57 1506.44 2025.59 1506.44 2025.59 1448.97 2092.26 1448.97 2092.26 1506.44 2113.31 1506.44 2113.31 1383.82 2092.26 1383.82 2092.26 1430.19"/><path class="cls-1" d="M2343.15,1431.14c-18.59-1.31-36.79-1.89-36.79-15.21s12.96-17.65,27.6-17.65c22.54,0,37.73,8.06,44.51,14.27l12.75-14.66c-9.74-7.7-30.58-17.83-56.51-17.83-22.54,0-49.38,8.64-49.38,37.76s30.79,31.92,57.81,33.8c21.42,1.68,35.51,4.87,35.51,20.27,0,13.9-14.45,20.11-32.68,20.11-27.41,0-44.7-13.17-54.65-22.18l-12.75,14.66c13.69,12.39,34.72,25.71,67.03,25.71,29.27,0,54.1-11.44,54.1-41.11,0-34.2-34.56-36.45-56.56-37.94Z"/><polygon class="cls-1" points="2461.19 1402.6 2509.45 1402.6 2509.45 1506.44 2530.47 1506.44 2530.47 1402.6 2578.55 1402.6 2578.55 1383.82 2461.19 1383.82 2461.19 1402.6"/><path class="cls-1" d="M2765.11,1421.37c0-9.4-3.56-18.04-9.77-24.61-7.88-8.43-19.17-12.93-35.48-12.93h-67.61v122.62h21.03v-47.13h43.57l26.29,47.13h24.25l-29.33-49.96c16.18-6,27.05-18.59,27.05-35.11Zm-41.5,19.14h-50.33v-37.91h46.58c6.57,0,13.33,.55,19.14,6.57,3.19,3.38,5.08,7.51,5.08,12.2,0,10.53-9.37,19.14-20.48,19.14Z"/><polygon class="cls-1" points="2867.15 1451.8 2914.31 1451.8 2914.31 1433.02 2867.15 1433.02 2867.15 1402.6 2945.65 1402.6 2945.65 1383.82 2846.15 1383.82 2846.15 1506.44 2950.15 1506.44 2950.15 1487.67 2867.15 1487.67 2867.15 1451.8"/><polygon class="cls-1" points="3048.08 1451.8 3095.24 1451.8 3095.24 1433.02 3048.08 1433.02 3048.08 1402.6 3126.58 1402.6 3126.58 1383.82 3027.08 1383.82 3027.08 1506.44 3131.08 1506.44 3131.08 1487.67 3048.08 1487.67 3048.08 1451.8"/><polygon class="cls-1" points="3192.41 1402.6 3240.69 1402.6 3240.69 1506.44 3261.69 1506.44 3261.69 1402.6 3309.76 1402.6 3309.76 1383.82 3192.41 1383.82 3192.41 1402.6"/><path class="cls-1" d="M517.75,435.17c-20.91,63.01-83.92,105.1-156.05,105.1H189.03V17.96H468.15c72.13,0,139.69,42.1,169.72,105.1l7.51,19.57h25.47c-4.56-39.15-10.46-91.7-15.01-130.58h-1.61V7.51H0v30.03H12.06c40.49,0,67.57,42.1,67.57,105.11V997.69c0,63.01-27.08,105.11-67.57,105.11H0v30.03H268.66v-30.03h-12.06c-40.49,0-67.57-42.1-67.57-105.11v-442.67h172.67c72.13,0,135.13,42.1,156.05,105.1l5.9,19.57h25.47V415.59h-25.47l-5.9,19.57Z"/><path class="cls-1" d="M841.64,1102.8c-12.87,0-19.57-6.97-19.57-22.52V382.61h-46.39l-66.23,17.96v17.96c13.41,13.41,19.57,47.46,19.57,91.7v570.03c0,15.55-6.44,22.52-19.57,22.52v30.03h132.19v-30.03Z"/><path class="cls-1" d="M835.48,150.15c0-78.83-119.85-78.56-119.85,0s119.85,78.29,119.85,0Z"/><path class="cls-1" d="M1655.67,1104.41c-73.47,0-123.07-45.04-123.07-159.27l2.95-512.92h229.51v-49.6h-229.51V248.28h-46.39l-65.96,17.96v18.23c13.14,13.14,19.31,47.19,19.31,91.43v6.7h-324.16c0-213.16,57.11-354.19,169.72-354.19,55.5,0,111.54,131.92,154.44,149.88,45.04,18.5,80.97-17.7,80.97-65.69,0-67.57-80.97-112.61-202.44-112.61-195.19,0-295.74,153.1-295.74,382.61l-148.54,38.88v10.73h148.54v648.06c0,15.55-6.43,22.52-19.57,22.52v30.03h132.19v-30.03c-12.87,0-19.57-6.97-19.57-22.52V432.22h324.16v492.01c0,160.61,75.07,223.62,186.08,223.62,68.91,0,142.64-52.55,184.47-130.58l-10.46-5.9c-30.03,55.5-88.48,93.04-146.93,93.04Z"/><path class="cls-1" d="M2473.45,930.39c-39.15,106.44-159.27,178.3-301.64,178.3-156.05,0-261.15-145.32-261.15-364.38,0-45.31,3.22-85.53,9.65-121.73h579.95c-32.98-182.86-149.88-254.99-309.15-254.99-226.57,0-378.06,115.56-378.06,414.25,0,219.06,138.08,365.99,343.74,365.99,146.93,0,275.9-87.14,322.55-216.11l-5.9-1.34Zm-285.29-550.73c97.87,0,174.28,63.81,207.26,228.44l-472.97,2.41c32.71-164.09,131.11-230.86,265.71-230.86Z"/><path class="cls-1" d="M3365.77,1080.28s.27-369.21,0-369.21l-46.39,80.97v288.23c0,15.55-6.7,22.52-19.57,22.52v30.03h86.87v-30.3c-12.87-1.61-20.91-2.41-20.91-22.25Z"/><path class="cls-1" d="M3861,1080.28v-442.67c0-161.95-68.91-270-202.7-270-79.37,0-178.3,62.74-245.87,181.25v-166.24h-46.65l-65.96,17.96v17.96c13.41,13.41,19.57,47.46,19.57,91.7v199.22l-127.9,220.94c-93.31,135.4-143.71,178.57-286.09,178.57-156.05,0-261.15-145.59-261.15-364.65,0-45.31,3.22-85.53,9.65-121.73h579.95c-32.98-182.86-149.88-254.99-308.88-254.99-226.83,0-378.32,115.56-378.32,414.25,0,219.06,138.09,365.99,343.74,365.99,146.93,0,253.91-82.05,322.55-216.11l199.49-348.03c55.5-95.99,139.43-160.61,208.6-160.61,97.33,0,148.54,85.53,148.54,214.5v442.67c0,15.55-6.7,22.52-19.57,22.52v30.03h130.58v-30.03c-13.14,0-19.57-6.97-19.57-22.52Zm-939.24-700.61c97.87,0,174.28,63.81,207.26,228.44l-472.97,2.41c32.71-164.09,131.11-230.86,265.71-230.86Z"/></svg>