<svg id="_15W96TH_Logomark_White_Copy_2" data-name="15W96TH_Logomark_White Copy 2" xmlns="http://www.w3.org/2000/svg" width="72" height="61" viewBox="0 0 72 61">
  <path id="Path" d="M17.066,0H19V60H10.509V5.532A29.936,29.936,0,0,1,0,7.915V5.532Q6.558,5.532,17.066,0Z" fill="#f1efe2"/>
  <path id="Shape" d="M30.738,54.383A17.075,17.075,0,0,0,34.1,43.745q0-7.915-4.535-12.6T17.3,26.469A28.34,28.34,0,0,0,3.863,29.533a20.136,20.136,0,0,1,8.062-4.554,34.4,34.4,0,0,1,10.666-1.66q9.407,0,14.909,4.766T43,40.937a17.5,17.5,0,0,1-5.711,13.447Q31.578,59.576,21.92,60A14.655,14.655,0,0,0,30.738,54.383Zm-26.16,2h0A9.856,9.856,0,0,1,0,47.915a7.836,7.836,0,0,1,1.511-4.937,4.755,4.755,0,0,1,3.947-1.957,7.5,7.5,0,0,1,3.443.766,16.561,16.561,0,0,0-1.344,6.723,11.513,11.513,0,0,0,2.6,7.575,10.759,10.759,0,0,0,6.8,3.83Q9.154,59.575,4.577,56.384ZM6.214,0h32V6.724H8.566L4.283,28.085Z" transform="translate(29 1)" fill="#f1efe2"/>
</svg>
